<svg xmlns="http://www.w3.org/2000/svg" width="189" height="56" fill="none"><path fill="#23FFFF" d="M12.858 2.155H3.166c-.892 0-1.615.723-1.615 1.615v35.54c0 .892.723 1.615 1.615 1.615h9.692c.893 0 1.616-.723 1.616-1.615V3.77c0-.892-.723-1.615-1.616-1.615Zm17.231-.001h-9.692c-.892 0-1.616.724-1.616 1.616v48.46c0 .892.724 1.616 1.616 1.616h9.692c.892 0 1.615-.724 1.615-1.616V3.77c0-.892-.723-1.616-1.615-1.616Z"/><path fill="#FEF8E8" d="M74.805 54.277V39.325h-.896c-.411.747-1.008 1.475-1.792 2.184-.784.672-1.792 1.232-3.024 1.68-1.195.448-2.688.672-4.48.672-2.315 0-4.443-.56-6.384-1.68-1.941-1.12-3.491-2.725-4.648-4.816-1.158-2.128-1.736-4.685-1.736-7.672v-.84c0-2.987.578-5.525 1.736-7.616 1.194-2.128 2.762-3.752 4.704-4.872 1.941-1.12 4.05-1.68 6.328-1.68 2.688 0 4.741.485 6.16 1.456 1.456.97 2.538 2.072 3.248 3.304h.896v-3.976h5.656v38.808h-5.768Zm-8.568-15.456c2.538 0 4.61-.803 6.216-2.408 1.605-1.605 2.408-3.901 2.408-6.888v-.504c0-2.95-.822-5.227-2.464-6.832-1.606-1.605-3.659-2.408-6.16-2.408-2.464 0-4.517.803-6.16 2.408-1.605 1.605-2.408 3.883-2.408 6.832v.504c0 2.987.803 5.283 2.408 6.888 1.642 1.605 3.696 2.408 6.16 2.408Zm29.49 4.76c-2.09 0-3.957-.467-5.6-1.4-1.642-.933-2.93-2.259-3.863-3.976-.934-1.717-1.4-3.77-1.4-6.16V15.469h5.768v16.184c0 2.39.597 4.163 1.792 5.32 1.194 1.12 2.856 1.68 4.984 1.68 2.352 0 4.237-.784 5.656-2.352 1.456-1.605 2.184-3.901 2.184-6.888V15.469h5.768v27.608h-5.656v-4.144h-.896c-.523 1.12-1.456 2.184-2.8 3.192-1.344.97-3.323 1.456-5.936 1.456Zm35.855.28c-2.688 0-4.76-.485-6.216-1.456-1.418-.97-2.482-2.053-3.192-3.248h-.896v3.92h-5.656v-39.2h5.768v15.344h.896c.448-.747 1.046-1.456 1.792-2.128.747-.71 1.736-1.288 2.968-1.736 1.232-.448 2.744-.672 4.536-.672 2.315 0 4.443.56 6.384 1.68 1.942 1.12 3.491 2.744 4.648 4.872 1.158 2.128 1.736 4.667 1.736 7.616v.84c0 2.987-.597 5.544-1.792 7.672-1.157 2.09-2.706 3.696-4.648 4.816-1.904 1.12-4.013 1.68-6.328 1.68Zm-1.68-5.04c2.502 0 4.555-.803 6.16-2.408 1.643-1.605 2.464-3.901 2.464-6.888v-.504c0-2.95-.802-5.227-2.408-6.832-1.605-1.605-3.677-2.408-6.216-2.408-2.464 0-4.517.803-6.16 2.408-1.605 1.605-2.408 3.883-2.408 6.832v.504c0 2.987.803 5.283 2.408 6.888 1.643 1.605 3.696 2.408 6.16 2.408Zm17.675 4.256V15.469h5.768v27.608h-5.768Zm2.912-31.36c-1.12 0-2.072-.355-2.856-1.064-.747-.747-1.12-1.699-1.12-2.856 0-1.157.373-2.09 1.12-2.8.784-.747 1.736-1.12 2.856-1.12 1.157 0 2.109.373 2.856 1.12.747.71 1.12 1.643 1.12 2.8 0 1.157-.373 2.11-1.12 2.856-.747.71-1.699 1.064-2.856 1.064Zm20.32 32.144c-2.65 0-5.058-.56-7.224-1.68-2.128-1.12-3.826-2.744-5.096-4.872-1.232-2.128-1.848-4.685-1.848-7.672v-.728c0-2.987.616-5.525 1.848-7.616 1.27-2.128 2.968-3.752 5.096-4.872 2.166-1.157 4.574-1.736 7.224-1.736 2.651 0 4.91.485 6.776 1.456 1.867.97 3.36 2.259 4.48 3.864a12.674 12.674 0 0 1 2.24 5.32l-5.6 1.176a9.21 9.21 0 0 0-1.176-3.36c-.597-1.008-1.437-1.81-2.52-2.408-1.082-.597-2.445-.896-4.088-.896-1.605 0-3.061.373-4.368 1.12-1.269.71-2.277 1.755-3.024 3.136-.746 1.344-1.12 2.987-1.12 4.928v.504c0 1.941.374 3.603 1.12 4.984.747 1.381 1.755 2.427 3.024 3.136 1.307.71 2.763 1.064 4.368 1.064 2.427 0 4.275-.616 5.544-1.848 1.27-1.27 2.072-2.875 2.408-4.816l5.6 1.288a14.652 14.652 0 0 1-2.408 5.264c-1.12 1.605-2.613 2.893-4.48 3.864-1.866.933-4.125 1.4-6.776 1.4Z"/></svg>